<?xml version="1.0" encoding="utf-8"?>
<!-- Generator: Adobe Illustrator 23.1.0, SVG Export Plug-In . SVG Version: 6.00 Build 0)  -->
<svg version="1.1" id="Calque_1" xmlns="http://www.w3.org/2000/svg" xmlns:xlink="http://www.w3.org/1999/xlink" x="0px" y="0px"
	 viewBox="0 0 500 500" style="enable-background:new 0 0 500 500;" xml:space="preserve">
<style type="text/css">
	.st0{fill:#1EA64A;}
	.st1{fill:#29255C;}
	.st2{fill:#92D4F4;}
	.st3{fill:#1F9DD9;}
	.st4{fill:#F5CE31;}
</style>
<g>
	<path class="st0" d="M296.61,281.87c-8.96,0-17.97-0.43-26.77-1.26c-20.28-1.94-40.47-5.32-59.99-8.62
		c-15.83-2.66-31.19-5.23-46.35-7.05c21.59,22.15,42.56,44.82,58.56,71.64c3.81,6.4,1.2,12.5-3.5,15.81l14.76,17.7
		c25.51-29.82,54.24-56.67,81.34-85.3c1.17-1.24,2.35-2.54,3.52-3.79C311.08,281.54,303.9,281.87,296.61,281.87"/>
	<path class="st1" d="M127.01,227.2c-14.65-15.9-28.42-32.55-39.76-51.16c-19.22-31.53-29.27-77.08-0.08-105.76
		c31.23-30.71,90.97-12,105.25,26.49c5.5,14.8,29.4,8.45,23.85-6.52c-14.58-39.31-52.92-61.27-94.21-59.02
		c-45.79,2.48-75.61,38.19-77.92,82.16c-2.39,45.49,20.39,82.62,50.21,116.72C104.67,228.36,115.54,227.41,127.01,227.2"/>
	<path class="st1" d="M163.49,264.95c-13-1.56-25.85-2.59-38.72-2.6c28.48,28.7,57.86,56.38,75.93,86.69
		c8.15,13.67,29.55,1.28,21.36-12.44C206.06,309.77,185.09,287.09,163.49,264.95"/>
	<path class="st1" d="M318.21,281.02c-1.18,1.26-2.37,2.54-3.55,3.78c-36.87,38.97-76.78,74.56-107.44,118.95
		c-9.08,13.14,12.32,25.53,21.31,12.51c36.1-52.25,85.76-92.71,127.02-140.57C343.51,278.29,331.04,280.08,318.21,281.02"/>
	<path class="st1" d="M260.31,235.62c15.77-1.25,15.95-25.97,0.05-24.72c-31.79,2.52-56.75-25.58-43.28-57.03
		c9.78-22.86,38.97-38.95,60.24-49.06c22.73-10.8,48.92-14.84,73.86-13.5c35.19,1.88,48.56,28.74,43.42,60.88
		c-4.07,25.41-15.05,48.98-29.3,70.74c12.6-4.69,25.05-10.4,37.48-17.22c21.26-44.61,31.43-99.65-12.92-128.36
		c-24.2-15.67-58.62-12.15-85.3-7.14c-31.78,5.99-60.95,22.28-85.35,43.03c-24.52,20.87-36.62,49.16-26.6,80.63
		C201.59,222.17,232.15,237.84,260.31,235.62"/>
	<path class="st2" d="M441.82,279.05c-22.66-0.26-44.41,2.62-66.23,8.74c-9.97,2.8-12.55,12.18-10.09,19.83
		c-10.17,4.72-20.25,9.71-30.18,15.03c-10.79,5.78-9.28,17.94-2.16,24.44c-4.02,1.47-8.02,2.93-12.03,4.39
		c-9.95,3.63-13,14.25-9.59,21.93l-32.33,4.37c-12.88,1.73-15.64,23.31-3.77,28.39c1.82,0.79,3.66,1.56,5.48,2.35
		c6.28,2.68,12.25,1.21,16.67-2.13c44.19-5.98,88.38-11.93,132.57-17.89c18.81-2.54,11.73-28.69-4.08-30.53
		c-8.43-0.96-16.87-1.84-25.31-2.63c8.3-3.02,16.57-6.06,24.86-9.08c15.32-5.61,14.01-25.44-0.1-29.74
		c6.73-2.39,13.48-4.76,20.34-6.91C462.51,304.34,459.69,279.25,441.82,279.05"/>
	<path class="st2" d="M187.66,379.23c-4.77-3.03-9.51-5-14.23-6.32c11.44-8.65,3.59-26.25-10.01-27.51
		c-1.07-0.08-2.12-0.19-3.19-0.29c3.02-2.44,6.06-4.9,9.09-7.34c10.05-8.13,2.23-28.21-10.94-26.54c-16.52,2.1-33.04,4.2-49.56,6.31
		c-19.12,2.43-19.81,32.03-1.38,31.11c-5.3,6.94-1.51,15.98,5.18,20.74c-6.87,3.31-13.7,6.68-20.66,9.85
		c-11.12,5.06-9.26,18.01-1.84,24.75c-9.99,3.08-19.99,6.14-29.98,9.22c-19.09,5.88-11,35.88,8.2,29.98
		c38.51-11.86,77.03-23.71,115.55-35.57C196.92,403.6,199.15,386.49,187.66,379.23"/>
	<path class="st3" d="M256.95,235.74c-27.2,0.79-55.7-14.7-64.34-41.86c-10-31.48,2.08-59.75,26.61-80.63l-9.12-9.15
		c-6.18,2.51-14.67,0.75-17.68-7.34c-14.29-38.48-74.02-57.2-105.26-26.49c-29.18,28.7-19.13,74.24,0.07,105.75
		c11.35,18.63,25.12,35.26,39.79,51.17c1.56-0.02,3.11-0.08,4.69-0.08c24.9,0,50.28,3.45,71.83,6.82c20.45,3.21,39.05,5,56.57,5.49
		L256.95,235.74z"/>
	<path class="st4" d="M260.36,210.9c15.9-1.26,15.73,23.47-0.04,24.72c-1.16,0.08-2.34,0.1-3.51,0.12c0.04,0,0.08,0,0.13,0
		l3.15,3.63c3.24,0.08,6.46,0.2,9.63,0.2c4.14,0,8.24-0.09,12.31-0.25c1-0.03,1.98-0.11,2.99-0.17c3.1-0.16,6.17-0.32,9.22-0.57
		c0.99-0.08,1.97-0.2,2.95-0.28c3.07-0.28,6.12-0.58,9.14-0.95c0.85-0.1,1.68-0.24,2.52-0.35c3.18-0.42,6.34-0.88,9.48-1.42
		c0.66-0.11,1.3-0.24,1.97-0.36c3.32-0.59,6.64-1.23,9.92-1.96c0.47-0.1,0.93-0.22,1.41-0.32c3.48-0.78,6.95-1.63,10.4-2.56
		c0.28-0.07,0.57-0.16,0.86-0.24c3.63-0.99,7.25-2.05,10.85-3.21c0.12-0.04,0.24-0.07,0.37-0.12c3.76-1.21,7.5-2.5,11.22-3.88
		c14.25-21.77,25.23-45.33,29.29-70.75c5.15-32.13-8.23-59-43.42-60.87c-21.75-1.17-44.43,1.75-64.95,9.68l-16.78,7.68
		c-20.07,10.17-43.75,25.05-52.38,45.19C203.61,185.32,228.57,213.42,260.36,210.9"/>
	<path class="st2" d="M270.36,275.02c8.57,0.82,17.35,1.24,26.25,1.24c60.08,0,125.4-19.21,166.37-66.27
		c9.21-10.58,0.92-27.88-9.91-27.88c-2.26,0-4.62,0.76-6.97,2.48c-59.16,43.39-114.16,60.58-176.38,60.58
		c-21.34,0-43.54-2.02-67.03-5.71c-23.95-3.75-47.74-6.75-70.97-6.75c-41.74,0-81.7,9.71-117.54,42.29
		c-4.88,4.43-0.4,12.47,4.75,12.47c0.96,0,1.96-0.27,2.92-0.92c33.98-22.72,68.12-29.84,102.62-29.84
		C172.14,256.73,220.53,270.29,270.36,275.02"/>
</g>
</svg>
