<?xml version="1.0" encoding="utf-8"?>
<!-- Generator: Adobe Illustrator 23.1.0, SVG Export Plug-In . SVG Version: 6.00 Build 0)  -->
<svg version="1.1" id="Calque_1" xmlns="http://www.w3.org/2000/svg" xmlns:xlink="http://www.w3.org/1999/xlink" x="0px" y="0px"
	 viewBox="0 0 57.4 57.4" style="enable-background:new 0 0 57.4 57.4;" xml:space="preserve">
<style type="text/css">
	.st0{fill:#FFFFFF;}
	.st1{fill:#1EA64A;}
	.st2{fill:#29255C;}
	.st3{fill:#92D4F4;}
	.st4{fill:#1F9DD9;}
	.st5{fill:#F5CE31;}
</style>
<g>
	<circle class="st0" cx="28.7" cy="28.7" r="28.7"/>
	<path class="st1" d="M34.4,33.1c-0.9,0-1.8,0-2.7-0.1c-2-0.2-4-0.5-6-0.9c-1.6-0.3-3.1-0.5-4.6-0.7c2.2,2.2,4.3,4.5,5.9,7.2
		c0.4,0.6,0.1,1.3-0.4,1.6l1.5,1.8c2.6-3,5.4-5.7,8.1-8.5c0.1-0.1,0.2-0.3,0.4-0.4C35.9,33.1,35.1,33.1,34.4,33.1"/>
	<path class="st2" d="M17.4,27.7c-1.5-1.6-2.8-3.3-4-5.1c-1.9-3.2-2.9-7.7,0-10.6c3.1-3.1,9.1-1.2,10.5,2.6c0.6,1.5,2.9,0.8,2.4-0.7
		C24.9,10,21.1,7.8,17,8.1c-4.6,0.2-7.6,3.8-7.8,8.2c-0.2,4.5,2,8.3,5,11.7C15.2,27.8,16.3,27.7,17.4,27.7"/>
	<path class="st2" d="M21.1,31.4c-1.3-0.2-2.6-0.3-3.9-0.3c2.8,2.9,5.8,5.6,7.6,8.7c0.8,1.4,3,0.1,2.1-1.2
		C25.4,35.9,23.3,33.7,21.1,31.4"/>
	<path class="st2" d="M36.6,33.1c-0.1,0.1-0.2,0.3-0.4,0.4c-3.7,3.9-7.7,7.5-10.7,11.9c-0.9,1.3,1.2,2.6,2.1,1.3
		c3.6-5.2,8.6-9.3,12.7-14.1C39.1,32.8,37.9,33,36.6,33.1"/>
	<path class="st2" d="M30.8,28.5c1.6-0.1,1.6-2.6,0-2.5c-3.2,0.3-5.7-2.6-4.3-5.7c1-2.3,3.9-3.9,6-4.9c2.3-1.1,4.9-1.5,7.4-1.3
		c3.5,0.2,4.9,2.9,4.3,6.1c-0.4,2.5-1.5,4.9-2.9,7.1c1.3-0.5,2.5-1,3.7-1.7c2.1-4.5,3.1-10-1.3-12.8c-2.4-1.6-5.9-1.2-8.5-0.7
		c-3.2,0.6-6.1,2.2-8.5,4.3c-2.5,2.1-3.7,4.9-2.7,8.1C24.9,27.2,28,28.7,30.8,28.5"/>
	<path class="st3" d="M48.9,32.9c-2.3,0-4.4,0.3-6.6,0.9c-1,0.3-1.3,1.2-1,2c-1,0.5-2,1-3,1.5c-1.1,0.6-0.9,1.8-0.2,2.4
		c-0.4,0.1-0.8,0.3-1.2,0.4c-1,0.4-1.3,1.4-1,2.2l-3.2,0.4c-1.3,0.2-1.6,2.3-0.4,2.8c0.2,0.1,0.4,0.2,0.5,0.2
		c0.6,0.3,1.2,0.1,1.7-0.2c4.4-0.6,8.8-1.2,13.3-1.8c1.9-0.3,1.2-2.9-0.4-3.1c-0.8-0.1-1.7-0.2-2.5-0.3c0.8-0.3,1.7-0.6,2.5-0.9
		c1.5-0.6,1.4-2.5,0-3c0.7-0.2,1.3-0.5,2-0.7C51,35.4,50.7,32.9,48.9,32.9"/>
	<path class="st3" d="M23.5,42.9c-0.5-0.3-1-0.5-1.4-0.6c1.1-0.9,0.4-2.6-1-2.8c-0.1,0-0.2,0-0.3,0c0.3-0.2,0.6-0.5,0.9-0.7
		c1-0.8,0.2-2.8-1.1-2.7c-1.7,0.2-3.3,0.4-5,0.6c-1.9,0.2-2,3.2-0.1,3.1c-0.5,0.7-0.2,1.6,0.5,2.1c-0.7,0.3-1.4,0.7-2.1,1
		c-1.1,0.5-0.9,1.8-0.2,2.5c-1,0.3-2,0.6-3,0.9c-1.9,0.6-1.1,3.6,0.8,3c3.9-1.2,7.7-2.4,11.6-3.6C24.4,45.3,24.7,43.6,23.5,42.9"/>
	<path class="st4" d="M30.4,28.5c-2.7,0.1-5.6-1.5-6.4-4.2c-1-3.1,0.2-6,2.7-8.1l-0.9-0.9c-0.6,0.3-1.5,0.1-1.8-0.7
		c-1.4-3.8-7.4-5.7-10.5-2.6c-2.9,2.9-1.9,7.4,0,10.6c1.1,1.9,2.5,3.5,4,5.1c0.2,0,0.3,0,0.5,0c2.5,0,5,0.3,7.2,0.7
		c2,0.3,3.9,0.5,5.7,0.5L30.4,28.5z"/>
	<path class="st5" d="M30.8,26c1.6-0.1,1.6,2.3,0,2.5c-0.1,0-0.2,0-0.4,0l0,0l0.3,0.4c0.3,0,0.6,0,1,0s0.8,0,1.2,0
		c0.1,0,0.2,0,0.3,0c0.3,0,0.6,0,0.9-0.1c0.1,0,0.2,0,0.3,0c0.3,0,0.6-0.1,0.9-0.1c0.1,0,0.2,0,0.3,0c0.3,0,0.6-0.1,0.9-0.1
		c0.1,0,0.1,0,0.2,0c0.3-0.1,0.7-0.1,1-0.2h0.1c0.3-0.1,0.7-0.2,1-0.3h0.1c0.4-0.1,0.7-0.2,1.1-0.3l0,0c0.4-0.1,0.8-0.3,1.1-0.4
		c1.4-2.2,2.5-4.5,2.9-7.1c0.5-3.2-0.8-5.9-4.3-6.1c-2.2-0.1-4.4,0.2-6.5,1L31.5,16c-2,1-4.4,2.5-5.2,4.5
		C25.1,23.5,27.6,26.3,30.8,26"/>
	<path class="st3" d="M31.8,32.5c0.9,0.1,1.7,0.1,2.6,0.1c6,0,12.5-1.9,16.6-6.6c0.9-1.1,0.1-2.8-1-2.8c-0.2,0-0.5,0.1-0.7,0.2
		c-5.9,4.3-11.4,6.1-17.6,6.1c-2.1,0-4.4-0.2-6.7-0.6c-2.4-0.4-4.8-0.7-7.1-0.7c-4.2,0-8.2,1-11.8,4.2c-0.5,0.4,0,1.2,0.5,1.2
		c0.1,0,0.2,0,0.3-0.1c3.4-2.3,6.8-3,10.3-3C22,30.6,26.8,32,31.8,32.5"/>
</g>
</svg>
